{"title":"Scott and Bailey S05E03 x264 RB58.mp4","uid":14458670,"size":500228741,"categoryP":"video","categoryS":"tv_shows","magnet":"?xt=urn:btih:2c6bcedffc8a8fc5ae1640681ca8e48363376e1e&amp;dn=Scott+and+Bailey+S05E03+x264+RB58.mp4&amp;tr=udp%3A%2F%2Ftracker.leechers-paradise.org%3A6969&amp;tr=udp%3A%2F%2Fzer0day.ch%3A1337&amp;tr=udp%3A%2F%2Fopen.demonii.com%3A1337&amp;tr=udp%3A%2F%2Ftracker.coppersurfer.tk%3A6969&amp;tr=udp%3A%2F%2Fexodus.desync.com%3A6969","seeders":2,"leechers":0,"uploader":"RedBaron58","files":1,"time":1461806174,"description":"Scott and Bailey S05E03 x264 mp4\r\n \nhttp://www.imdb.com/title/tt1843678/\r\n\r\nTrailer:\r\n\r\nPlease be patient My intial upload speed is limited.\r\nThank you for your kind comments and feedback on my other torrents, your feedback is welcome.\r\n\r\n\r\nAbout the Episode:\r\nRachel is criticised for a lack of progress with the investigation and she knows she must \r\nfind both a murder weapon and the encryption code used to access the website. \r\nHowever, as the team makes a significant breakthrough in the case, DSI Julie Dodson makes \r\na discovery which jeopardises Rachel's position as Acting DI. \r\nMeanwhile, when Janet's attempt to help Taisie results in a complaint, her faith in \r\njustice is tested, and both Scott and Bailey have life-changing decisions to make \r\nabout their futures.\r\n\r\nStarring Lesley Sharp and Suranne Jones\r\n\r\nI hope you enjoy.\r\n\r\n\r\nTechnical:\r\n\r\nGeneral\r\nComplete name                            : G:Scott and Bailey S05E03 x264 RB58.mp4\r\nFormat                                   : MPEG-4\r\nFormat profile                           : Base Media\r\nCodec ID                                 : isom\r\nFile size                                : 477 MiB\r\nDuration                                 : 43mn 51s\r\nOverall bit rate                         : 1 521 Kbps\r\nWriting application                      : Lavf54.63.104\r\n\r\nVideo\r\nID                                       : 1\r\nFormat                                   : AVC\r\nFormat/Info                              : Advanced Video Codec\r\nFormat profile                           :   \r\nFormat settings, CABAC                   : Yes\r\nFormat settings, ReFrames                : 4 frames\r\nCodec ID                                 : avc1\r\nCodec ID/Info                            : Advanced Video Coding\r\nDuration                                 : 43mn 51s\r\nBit rate                                 : 1 400 Kbps\r\nWidth                                    : 832 pixels\r\nHeight                                   : 468 pixels\r\nDisplay aspect ratio                     : 16:9\r\nFrame rate mode                          : Constant\r\nFrame rate                               : 25.000 fps\r\nColor space                              : YUV\r\nChroma subsampling                       : 4:2:0\r\nBit depth                                : 8 bits\r\nScan type                                : Progressive\r\nBits/(Pixel*Frame)                       : 0.144\r\nStream size                              : 439 MiB (92%)\r\nWriting library                          : x264 core 123 r2189 35cf912\r\nEncoding settings                        : cabac=1 / ref=3 / deblock=1:0:0\r\n\r\nAudio\r\nID                                       : 2\r\nFormat                                   : AAC\r\nFormat/Info                              : Advanced Audio Codec\r\nFormat profile                           : LC\r\nCodec ID                                 : 40\r\nDuration                                 : 43mn 51s\r\nBit rate mode                            : Constant\r\nBit rate                                 : 112 Kbps\r\nChannel(s)                               : 2 channels\r\nChannel positions                        : Front: L R\r\nSampling rate                            : 48.0 KHz\r\nCompression mode                         : Lossy\r\nStream size                              : 35.2 MiB (7%)","torrent":{"xt":"urn:btih:2c6bcedffc8a8fc5ae1640681ca8e48363376e1e","amp;dn":"Scott+and+Bailey+S05E03+x264+RB58.mp4","amp;tr":["udp%3A%2F%2Ftracker.leechers-paradise.org%3A6969","udp%3A%2F%2Fzer0day.ch%3A1337","udp%3A%2F%2Fopen.demonii.com%3A1337","udp%3A%2F%2Ftracker.coppersurfer.tk%3A6969","udp%3A%2F%2Fexodus.desync.com%3A6969"],"infoHash":"2c6bcedffc8a8fc5ae1640681ca8e48363376e1e","infoHashBuffer":{"type":"Buffer","data":[44,107,206,223,252,138,143,197,174,22,64,104,28,168,228,131,99,55,110,30]},"announce":[],"urlList":[]}}